<svg xmlns="http://www.w3.org/2000/svg" width="86" height="24" viewBox="0 0 86 24">
  <g id="Sunset" transform="translate(-79 -442)">
    <g id="Group_5" data-name="Group 5" transform="translate(-25 -91.86)">
      <path id="Subtraction_1" data-name="Subtraction 1" d="M30,15H0c0-.033,0-.065,0-.1v-.025A14.721,14.721,0,0,1,4.393,4.358a15.086,15.086,0,0,1,21.213,0A14.721,14.721,0,0,1,30,14.879c0,.04,0,.08,0,.121Z" transform="translate(149 533.86)" fill="#ffff3a"/>
      <rect id="Rectangle_5" data-name="Rectangle 5" width="44" height="2" rx="1" transform="translate(142 547.86)" fill="#fff"/>
      <rect id="Rectangle_6" data-name="Rectangle 6" width="44" height="2" rx="1" transform="translate(135 551.86)" fill="#fff"/>
      <rect id="Rectangle_7" data-name="Rectangle 7" width="41" height="2" rx="1" transform="translate(149 555.86)" fill="#fff"/>
    </g>
    <path id="Polygon_2" data-name="Polygon 2" d="M10.5,0,21,18H0Z" transform="translate(100 463) rotate(180)" fill="#fff"/>
  </g>
</svg>
