<svg width="60" height="32" viewBox="0 0 60 32" fill="none" xmlns="http://www.w3.org/2000/svg">
<g clip-path="url(#clip0_428_6630)">
<path d="M34.8257 27.3455H29.8517L27.8779 22.1729H18.8405L16.9772 27.3455H12.1348L20.9406 4.67285H25.7672L34.8257 27.3455ZM26.4041 18.3819L23.2986 9.94555L20.2458 18.3819H26.4041Z" fill="white"/>
<path fill-rule="evenodd" clip-rule="evenodd" d="M38.9522 27.3454C39.1776 27.3454 39.4082 27.3454 39.6389 27.3454C40.9474 27.3471 42.2544 27.254 43.5491 27.0669C44.9327 26.8498 46.2964 26.5239 47.6271 26.0923V14.654H38.7163V18.5527H42.9725V23.1579C41.977 23.3571 40.964 23.459 39.9481 23.4622C39.0464 23.4842 38.1511 23.308 37.3273 22.9465L38.9522 27.3454ZM31.918 8.03757C32.0438 7.90349 32.1748 7.77456 32.3058 7.64564C34.3815 5.65159 37.2557 4.65457 40.9283 4.65457C43.2219 4.65024 45.4918 5.11198 47.5956 6.01087L46.0231 9.76001C44.4392 8.96379 42.686 8.54846 40.9073 8.54812C39.9798 8.51179 39.0555 8.67792 38.201 9.03456C37.3464 9.39121 36.5826 9.92954 35.9645 10.6109C35.0247 11.6775 34.4234 12.9917 34.2348 14.391L31.918 8.03757Z" fill="#0ACAD6"/>
<path d="M0.5 32V0H9.22727V4.65455H5.17768V27.3455H9.22727V32H0.5Z" fill="white"/>
<path d="M59.2624 0V32H50.5352V27.3455H54.5788V4.65455H50.5352V0H59.2624Z" fill="#0ACAD6"/>
</g>
<defs>
<clipPath id="clip0_428_6630">
<rect width="58.7636" height="32" fill="white" transform="translate(0.5)"/>
</clipPath>
</defs>
</svg>
