<svg xmlns="http://www.w3.org/2000/svg" viewBox="0 0 103 52.3"><title>AG-logo-white-green</title><g id="Layer_2" data-name="Layer 2"><g id="Layer_1-2" data-name="Layer 1"><g id="AG-logo-white-green"><path id="Exclusion_4" data-name="Exclusion 4" d="M14.2,52.3H0V0H14.2V6.2H7.6V46.1h6.6v6.2Zm14.6-4.5H19l15.1-43H45.2l15.2,43H50.6L47.5,37.6H31.9ZM39.7,11.5h0c-.6,2.5-2.5,8.7-5.5,18.5H45.3c-2.9-9.5-4.5-14.5-4.8-15.7a18.3,18.3,0,0,1-.8-2.8Z" style="fill:#fff"/><path id="Exclusion_3" data-name="Exclusion 3" d="M103,52.3H88.8V46.1h6.5V6.2H88.8V0H103ZM68.1,47.7H66.8l-3.1-8.5a12.3,12.3,0,0,0,5,.9,36.6,36.6,0,0,0,5.7-.5v-9H66.3V23.1h17V45.3a63.5,63.5,0,0,1-7.8,1.9,60,60,0,0,1-7.4.5ZM57.7,22.5,53.3,10.2l.8-.7a18.1,18.1,0,0,1,7.1-4.4,26.9,26.9,0,0,1,9.3-1.4A33.3,33.3,0,0,1,83.3,6.3l-3.1,7.3a20.5,20.5,0,0,0-9.7-2.4,12.3,12.3,0,0,0-9.5,4A14.8,14.8,0,0,0,57.7,22.5Z" style="fill:#0acad6"/></g></g></g></svg>