<svg width="45" height="45" viewBox="0 0 45 45" fill="none" xmlns="http://www.w3.org/2000/svg">
<rect width="45" height="45" rx="8" fill="#1E1E1E"/>
<g clip-path="url(#clip0_117_2967)">
<path d="M23 23C23 21.4971 23.5795 20.0558 24.6109 18.9931C25.6424 17.9304 27.0413 17.3333 28.5 17.3333C29.9587 17.3333 31.3576 17.9304 32.3891 18.9931C33.4205 20.0558 34 21.4971 34 23C34 24.5029 33.4205 25.9442 32.3891 27.0069C31.3576 28.0696 29.9587 28.6667 28.5 28.6667C27.0413 28.6667 25.6424 28.0696 24.6109 27.0069C23.5795 25.9442 23 24.5029 23 23Z" fill="#1ABCFE"/>
<path d="M12 34.3333C12 32.8304 12.5795 31.3891 13.6109 30.3264C14.6424 29.2637 16.0413 28.6667 17.5 28.6667H23V34.3333C23 35.8362 22.4205 37.2776 21.3891 38.3403C20.3576 39.403 18.9587 40 17.5 40C16.0413 40 14.6424 39.403 13.6109 38.3403C12.5795 37.2776 12 35.8362 12 34.3333V34.3333Z" fill="#0ACF83"/>
<path d="M23 6V17.3333H28.5C29.9587 17.3333 31.3576 16.7363 32.3891 15.6736C33.4205 14.6109 34 13.1696 34 11.6667C34 10.1638 33.4205 8.72243 32.3891 7.65973C31.3576 6.59702 29.9587 6 28.5 6H23Z" fill="#FF7262"/>
<path d="M12 11.6667C12 13.1696 12.5795 14.6109 13.6109 15.6736C14.6424 16.7363 16.0413 17.3333 17.5 17.3333H23V6H17.5C16.0413 6 14.6424 6.59702 13.6109 7.65973C12.5795 8.72243 12 10.1638 12 11.6667V11.6667Z" fill="#F24E1E"/>
<path d="M12 23C12 24.5029 12.5795 25.9442 13.6109 27.0069C14.6424 28.0696 16.0413 28.6667 17.5 28.6667H23V17.3333H17.5C16.0413 17.3333 14.6424 17.9304 13.6109 18.9931C12.5795 20.0558 12 21.4971 12 23V23Z" fill="#A259FF"/>
</g>
<defs>
<clipPath id="clip0_117_2967">
<rect width="22" height="34" fill="white" transform="translate(12 6)"/>
</clipPath>
</defs>
</svg>
