<svg width="45" height="45" viewBox="0 0 45 45" fill="none" xmlns="http://www.w3.org/2000/svg">
<path d="M9.90121 41.3859L7 8.84378H38.8806L35.9761 41.3807L22.9204 45L9.90121 41.3859Z" fill="#E44D26"/>
<path d="M22.9409 42.2332L33.4902 39.3082L35.9723 11.5046H22.9409V42.2332Z" fill="#F16529"/>
<path d="M22.9405 23.5742H17.6587L17.2936 19.4869H22.9392V15.4961H12.9331L13.0283 16.5671L14.0093 27.5657H22.9405V23.5742ZM22.9405 33.939L22.9231 33.9435L18.4784 32.7426L18.1943 29.5599H14.1873L14.7466 35.8264L22.9225 38.0964L22.9411 38.0912L22.9405 33.939Z" fill="#EBEBEB"/>
<path d="M9.9668 0H11.995V2.00443H13.8509V0H15.8792V6.06857H13.8509V4.03907H11.9957V6.07114H9.96744V0H9.9668ZM18.5457 2.01279H16.7599V0H22.3604V2.01279H20.5739V6.06857H18.5457V2.01279ZM23.2495 0H25.3639L26.665 2.13236L27.9649 0H30.0805V6.06857H28.06V3.06L26.665 5.21743H26.6297L25.2334 3.06V6.06793H23.2489L23.2495 0ZM31.0924 0H33.1212V4.06286H35.9736V6.06921H31.0898V0.000642504L31.0924 0Z" fill="black"/>
<path d="M22.9268 23.5742V27.5651H27.8414L27.3779 32.7414L22.9268 33.9429V38.0951L31.1084 35.8258L31.1682 35.1514L32.1061 24.6446L32.2038 23.5729H22.9268V23.5742ZM22.9268 15.4954V19.4863H32.5696L32.6493 18.5863L32.8313 16.5632L32.927 15.4922L22.9268 15.4954Z" fill="white"/>
</svg>
