<svg width="45" height="45" viewBox="0 0 45 45" fill="none" xmlns="http://www.w3.org/2000/svg">
<g clip-path="url(#clip0_122_2592)">
<path d="M0 0H45V45H0V0Z" fill="#F0DB4F"/>
<path d="M41.3171 34.2675C40.9873 32.2149 39.6456 30.4901 35.6837 28.8823C34.3061 28.2491 32.7703 27.7959 32.3132 26.7519C32.1594 26.3299 32.1313 25.8723 32.2322 25.4346C32.5273 24.2415 33.9518 23.8693 35.0807 24.2132C35.486 24.3557 35.8576 24.5801 36.1726 24.8722C36.4875 25.1644 36.7391 25.5182 36.9116 25.9116C38.8536 24.6542 38.8491 24.6626 40.2056 23.7986C39.8969 23.2761 39.5326 22.7886 39.1191 22.3444C37.9511 21.0401 36.36 20.3683 33.8149 20.4197L32.4893 20.5914C31.254 20.867 30.1371 21.5252 29.2976 22.4724C28.8056 23.0887 28.4424 23.7975 28.2295 24.5568C28.0166 25.3161 27.9583 26.1104 28.0581 26.8926C28.1578 27.6749 28.4136 28.4291 28.8103 29.1107C29.2069 29.7922 29.7364 30.3872 30.3673 30.8604C32.9207 32.7774 36.6724 33.2132 37.1513 35.0055C37.6174 37.1996 35.5391 37.9099 33.4723 37.6579C31.9493 37.341 31.1027 36.5651 30.1873 35.1598C28.5023 36.135 28.5023 36.135 26.7692 37.1314C27.157 37.908 27.6749 38.6125 28.3005 39.2143C31.5604 42.5205 39.717 42.3585 41.1801 37.3539C41.4856 36.3533 41.5325 35.2917 41.3164 34.2681L41.3171 34.2675ZM24.4633 20.682H20.2545L20.2371 31.5636C20.2371 33.8779 20.3567 35.9994 19.98 36.6499C19.3641 37.9292 17.7686 37.7704 17.0415 37.5223C16.366 37.1623 15.8224 36.5971 15.489 35.9081C15.4231 35.7713 15.3427 35.642 15.2492 35.5224L11.8273 37.6181C12.3682 38.7809 13.2285 39.7659 14.3081 40.4582C16.1439 41.4668 18.2971 41.7317 20.3226 41.1981C21.0433 41.017 21.718 40.6866 22.303 40.2284C22.888 39.7702 23.3703 39.1943 23.7188 38.538C24.6773 36.7714 24.4716 34.6326 24.4626 32.2676C24.4851 28.4111 24.4633 24.5526 24.4633 20.682Z" fill="#323330"/>
</g>
<defs>
<clipPath id="clip0_122_2592">
<rect width="45" height="45" fill="white"/>
</clipPath>
</defs>
</svg>
