<svg width="45" height="45" viewBox="0 0 45 45" fill="none" xmlns="http://www.w3.org/2000/svg">
<g clip-path="url(#clip0_117_3007)">
<path d="M37.0312 0H7.96875C3.56773 0 0 3.65921 0 8.17308V36.8269C0 41.3408 3.56773 45 7.96875 45H37.0312C41.4323 45 45 41.3408 45 36.8269V8.17308C45 3.65921 41.4323 0 37.0312 0Z" fill="#001E36"/>
<path d="M10.1328 31.5568V11.7724C10.1328 11.6282 10.1932 11.5556 10.314 11.5556C10.6356 11.5556 10.9293 11.5508 11.3722 11.5401C11.8147 11.53 12.2927 11.5197 12.8061 11.5092C13.3194 11.499 13.8628 11.4887 14.4363 11.4782C15.0098 11.4681 15.5783 11.4629 16.1418 11.4627C17.6711 11.4627 18.959 11.6588 20.0058 12.051C20.9501 12.3786 21.8112 12.918 22.5265 13.63C23.1329 14.2472 23.6015 14.9919 23.9 15.8128C24.1824 16.6118 24.3255 17.4554 24.3227 18.3052C24.3227 19.9568 23.9504 21.3191 23.2058 22.3922C22.4562 23.4696 21.4026 24.2854 20.187 24.7298C18.9191 25.215 17.5102 25.3795 15.9608 25.3795C15.5178 25.3795 15.2059 25.3744 15.0249 25.364C14.8438 25.3539 14.5722 25.3487 14.2099 25.3486V31.5258C14.2152 31.5637 14.2118 31.6023 14.2 31.6385C14.1882 31.6748 14.1683 31.7078 14.142 31.7348C14.1156 31.7619 14.0835 31.7822 14.0481 31.7943C14.0127 31.8064 13.9751 31.8099 13.9382 31.8045H10.3441C10.2031 31.8045 10.1328 31.7222 10.1328 31.5568ZM14.2099 15.271V21.7239C14.4712 21.7447 14.7127 21.755 14.9344 21.7548H15.9305C16.6635 21.7523 17.3917 21.6331 18.089 21.4014C18.687 21.2192 19.2214 20.8646 19.6285 20.3797C20.0209 19.9051 20.2172 19.2446 20.2172 18.3981C20.2331 17.7992 20.0812 17.2082 19.7794 16.6952C19.4622 16.1992 19.0037 15.8154 18.4663 15.5961C17.7646 15.3164 17.0151 15.1847 16.2626 15.2091C15.7796 15.2091 15.3519 15.2143 14.9797 15.2246C14.6071 15.2352 14.3505 15.2507 14.2099 15.271V15.271Z" fill="#31A8FF"/>
<path d="M35.9946 20.5506C35.4273 20.2516 34.8231 20.0329 34.1985 19.9004C33.5102 19.7384 32.8066 19.6553 32.1004 19.6527C31.7185 19.642 31.3371 19.689 30.9684 19.792C30.7337 19.8456 30.5252 19.9827 30.3797 20.179C30.2813 20.336 30.229 20.5187 30.2288 20.7054C30.2343 20.8865 30.298 21.0606 30.4099 21.2007C30.5863 21.4123 30.8017 21.5859 31.0438 21.7116C31.4742 21.9493 31.9177 22.1613 32.3721 22.3463C33.3852 22.6942 34.3533 23.1672 35.255 23.7551C35.8692 24.1527 36.3775 24.7006 36.7342 25.3496C37.0341 25.9641 37.1843 26.6441 37.1719 27.3312C37.19 28.2384 36.9372 29.1297 36.4475 29.8855C35.9231 30.6527 35.1948 31.2491 34.3493 31.6038C33.4334 32.0165 32.3013 32.2229 30.9533 32.2231C30.0969 32.232 29.242 32.1489 28.4025 31.9754C27.741 31.851 27.0971 31.643 26.4855 31.3561C26.4195 31.3212 26.3646 31.2677 26.3272 31.2019C26.2898 31.1361 26.2714 31.0607 26.2742 30.9846V27.6407C26.2706 27.608 26.2757 27.5749 26.289 27.5449C26.3023 27.5149 26.3233 27.4892 26.3497 27.4705C26.3757 27.4554 26.4054 27.4489 26.4351 27.4516C26.4647 27.4544 26.4929 27.4664 26.5157 27.486C27.238 27.9227 28.0222 28.2413 28.8402 28.4303C29.5611 28.6156 30.3006 28.7143 31.0438 28.7244C31.7481 28.7244 32.2663 28.6315 32.5985 28.4458C32.7485 28.3753 32.8754 28.2618 32.9638 28.1189C33.0522 27.9761 33.0984 27.81 33.0966 27.6407C33.0966 27.3728 32.9457 27.1148 32.6438 26.8667C32.342 26.619 31.7281 26.3197 30.8023 25.9688C29.8545 25.6304 28.9557 25.1618 28.1307 24.5756C27.5406 24.1547 27.0548 23.598 26.7119 22.9501C26.4151 22.34 26.265 21.6658 26.2742 20.984C26.2725 20.1648 26.4919 19.3611 26.9081 18.6619C27.3827 17.8919 28.0641 17.2791 28.8704 16.8971C29.7557 16.4433 30.8626 16.2163 32.191 16.2159C32.969 16.2095 33.7462 16.2665 34.5154 16.3862C35.0725 16.4587 35.617 16.6098 36.1337 16.8352C36.1747 16.8472 36.2124 16.8689 36.2438 16.8984C36.2752 16.928 36.2995 16.9646 36.3148 17.0055C36.3352 17.0811 36.3454 17.1592 36.345 17.2377V20.3648C36.3471 20.4012 36.3398 20.4375 36.3239 20.4701C36.308 20.5027 36.2841 20.5304 36.2545 20.5506C36.2141 20.5712 36.1696 20.5819 36.1245 20.5819C36.0795 20.5819 36.035 20.5712 35.9946 20.5506Z" fill="#31A8FF"/>
</g>
<defs>
<clipPath id="clip0_117_3007">
<rect width="45" height="45" fill="white"/>
</clipPath>
</defs>
</svg>
