<svg xmlns="http://www.w3.org/2000/svg" width="45.808" height="45" viewBox="0 0 45.808 45">
  <defs>
    <style>
      .cls-1, .cls-2 {
        fill: #a80ad6;
      }

      .cls-2 {
        fill-rule: evenodd;
      }
    </style>
  </defs>
  <g id="xdTool" transform="translate(0)">
    <path id="Path_104" data-name="Path 104" class="cls-1" d="M22.453,41.285H18.024L13.77,34.366,9.516,41.285H5.362l6.068-9.434L5.75,22.993h4.279l3.941,6.581,3.866-6.581h4.179l-5.743,9.071Zm11.536-1.839h-.113a4.88,4.88,0,0,1-4.3,2.089A5.092,5.092,0,0,1,25.387,39.7a8.1,8.1,0,0,1-1.5-5.23,8.232,8.232,0,0,1,1.5-5.267,5.052,5.052,0,0,1,4.179-1.877,4.987,4.987,0,0,1,4.279,2.027h.163l-.088-.988-.05-.963v-5.58h2.077V41.285H34.264Zm-4.154.35a3.781,3.781,0,0,0,3.084-1.157,5.848,5.848,0,0,0,.957-3.735v-.438a6.881,6.881,0,0,0-.97-4.16,3.682,3.682,0,0,0-3.1-1.245,3.179,3.179,0,0,0-2.8,1.42,7.061,7.061,0,0,0-.97,4.01,6.769,6.769,0,0,0,.963,3.966A3.263,3.263,0,0,0,29.835,39.8Z" transform="translate(1.327 -8.844)"/>
    <path id="photoshop-line" class="cls-2" d="M46.523.72c-13.169,0-26.279,0-39.448,0-1.884,0-3.8,0-5.683,0A.963.963,0,0,0,1,.8V45.717H46.808V.8c0-.03-.151-.084-.285-.084Zm-4.63,40.6q-17.8-.02-35.6-.011c-.573,0-.57,0-.57-.58V5.882c0-.573-.005-.432.574-.432H41.854c.6,0,.591-.141.591.46v17.4q0,8.723.013,17.446c0,.443-.105.563-.566.563Z" transform="translate(-1 -0.717)"/>
  </g>
</svg>
