<svg xmlns="http://www.w3.org/2000/svg" viewBox="0 0 107.9 55"><title>ag-logo-white</title><g id="Layer_2" data-name="Layer 2"><g id="Layer_1-2" data-name="Layer 1"><g id="Color"><path d="M63,48H53.5l-3.7-9.8H32.6L29.1,48H19.9L36.6,5h9.2ZM47,31,41.1,15,35.3,31Z" style="fill:#fff"/><path d="M67.7,47.8H69a60,60,0,0,0,7.4-.5h0a63.5,63.5,0,0,0,7.8-1.9h0V23.2h-17v7.5h8.1v9h0a26.9,26.9,0,0,1-5.7.6h0a12.4,12.4,0,0,1-5-1ZM54.3,10.4l.7-.8h0c4-3.9,9.4-5.8,16.4-5.8h0A32.9,32.9,0,0,1,84.2,6.4h0l-3,7.3h0a21.2,21.2,0,0,0-9.8-2.4h0a12.3,12.3,0,0,0-9.4,4h0a13.9,13.9,0,0,0-3.3,7.4Z" style="fill:#fff;fill-rule:evenodd"/><path d="M0,55V0H14.6V6.5H7.8V48.6h6.8V55Z" style="fill:#fff"/><path d="M107.9,0V55H93.3V48.6h6.8V6.4H93.3V0Z" style="fill:#fff"/></g></g></g></svg>