<svg xmlns="http://www.w3.org/2000/svg" viewBox="0 0 107.93 55.05"><defs><style>.cls-1{isolation:isolate;}.cls-2,.cls-3{fill:#0acad6;}.cls-2{fill-rule:evenodd;}</style></defs><title>AG-logo-color</title><g id="Layer_2" data-name="Layer 2"><g id="Color"><g class="cls-1"><path d="M63,48H53.55L49.8,38.19H32.63L29.09,48h-9.2L36.62,5h9.17ZM47,31,41.1,15,35.3,31Z"/></g><path class="cls-2" d="M67.68,47.79c.43,0,.87,0,1.31,0h0a50.88,50.88,0,0,0,7.46-.54h0a50,50,0,0,0,7.78-1.89h0V23.18h-17v7.56h8.12v8.93h0a29.43,29.43,0,0,1-5.77.59h0a11.57,11.57,0,0,1-5-1ZM54.26,10.35c.24-.26.49-.51.74-.76h0q5.94-5.8,16.45-5.8h0A31.78,31.78,0,0,1,84.17,6.42h0l-3,7.27h0a21.46,21.46,0,0,0-9.76-2.35h0a12,12,0,0,0-9.43,4h0a14,14,0,0,0-3.3,7.33Z"/><g class="cls-1"><path d="M0,55.05V0H14.59V6.47H7.82v42.1h6.77v6.48Z"/></g><g class="cls-1"><path class="cls-3" d="M107.93,0V55.05H93.34V48.57h6.76V6.42H93.34V0Z"/></g></g></g></svg>