<svg width="45" height="45" viewBox="0 0 45 45" fill="none" xmlns="http://www.w3.org/2000/svg">
<path d="M32.0772 1.64186H29.4029L32.1839 4.5855V5.98693H26.4567V4.34571H29.2371L26.4567 1.40271V0H32.0772V1.64186ZM25.3214 1.64186H22.6491L25.4275 4.5855V5.98693H19.6996V4.34571H22.4806L19.7003 1.40271V0H25.3214V1.64186ZM18.6318 1.70614H15.7461V4.27757H18.6312V5.98693H13.6947V0H18.6312V1.70936L18.6318 1.70614Z" fill="#131313"/>
<path d="M9.90121 41.373L7 8.71907H38.8786L35.9749 41.3672L22.9197 45L9.90121 41.373Z" fill="#1572B6"/>
<path d="M23.1672 42.273L33.5655 39.3904L36.0115 11.9854H23.1672V42.273Z" fill="#33A9DC"/>
<path d="M23.0437 23.2598H28.2508L28.6108 19.2317H23.0437V15.2974H32.9083L32.8151 16.353L31.8508 27.1935H23.0437V23.2598Z" fill="white"/>
<path d="M22.8773 33.6954L22.8599 33.7005L18.4788 32.517L18.1986 29.3792H14.2501L14.8017 35.5558L22.8599 37.7929L22.8786 37.7878V33.6954H22.8773Z" fill="#EBEBEB"/>
<path d="M27.8992 27.2379L27.4255 32.5093L23.038 33.6934V37.7833L31.1026 35.5481L31.1618 34.8834L31.8464 27.2379H27.8992Z" fill="white"/>
<path d="M22.849 15.2974V19.2336H13.3469L13.2679 18.3497L13.0885 16.3568L12.994 15.3013H22.849V15.2974ZM22.8355 23.2598V27.1935H18.5097L18.4307 26.3096L18.2513 24.3167L18.1568 23.2611L22.8355 23.2598Z" fill="#EBEBEB"/>
</svg>
