<svg xmlns="http://www.w3.org/2000/svg" width="45.01" height="45" viewBox="0 0 45.01 45">
  <defs>
    <style>
      .cls-1 {
        fill: #f34f29;
      }
    </style>
  </defs>
  <path id="git-plain" class="cls-1" d="M45.02,21.379,25.372,1.732a2.9,2.9,0,0,0-4.1,0l-4.079,4.08,5.175,5.175a3.441,3.441,0,0,1,4.358,4.387l4.988,4.989a3.444,3.444,0,1,1-2.065,1.944L25,17.656V29.9a3.433,3.433,0,1,1-4.075.652,3.673,3.673,0,0,1,1.018-.752V17.442a3.643,3.643,0,0,1-1.018-.753,3.43,3.43,0,0,1-.687-3.77l-5.074-5.1L1.7,21.288a2.9,2.9,0,0,0,.007,4.1L21.362,45.035a2.9,2.9,0,0,0,4.1,0L45.019,25.479a2.9,2.9,0,0,0,0-4.1Z" transform="translate(-0.858 -0.884)"/>
</svg>
