<svg xmlns="http://www.w3.org/2000/svg" width="18.171" height="16.274" viewBox="0 0 18.171 16.274">
  <defs>
    <style>
      .cls-1 {
        fill: none;
        stroke: #fff;
        stroke-linecap: round;
        stroke-linejoin: round;
      }
    </style>
  </defs>
  <g id="Git" transform="translate(0.501 0.5)">
    <path id="Path_98" data-name="Path 98" class="cls-1" d="M496.472,401.266c0-4.88-3.167-2.887-5.756-2.887s-5.756-1.942-5.756,2.887a2.778,2.778,0,0,0,2.686,2.861h6.14A2.777,2.777,0,0,0,496.472,401.266Z" transform="translate(-482.13 -390.488)"/>
    <path id="Path_99" data-name="Path 99" class="cls-1" d="M497.548,393.651l.026.018s2.073-3.58-.473-5.669c-1.567,0-3.963,2.588-3.963,2.588l.018.012a11.079,11.079,0,0,0-6.095-.013c-.013-.014-2.4-2.587-3.962-2.587-2.486,2.038-.571,5.492-.481,5.653a6.948,6.948,0,0,0-1.094,4.5c.189,2.449,2.231,5.123,4.687,5.123h7.745c2.456,0,4.5-2.674,4.687-5.123A6.934,6.934,0,0,0,497.548,393.651Z" transform="translate(-481.499 -388)"/>
    <ellipse id="Ellipse_17" data-name="Ellipse 17" class="cls-1" cx="0.818" cy="1.226" rx="0.818" ry="1.226" transform="translate(10.513 9.713)"/>
    <ellipse id="Ellipse_18" data-name="Ellipse 18" class="cls-1" cx="0.818" cy="1.226" rx="0.818" ry="1.226" transform="translate(5.054 9.713)"/>
  </g>
</svg>
