<svg xmlns="http://www.w3.org/2000/svg" width="46.14" height="45" viewBox="0 0 46.14 45">
  <defs>
    <style>
      .cls-1, .cls-2 {
        fill: #181616;
      }

      .cls-1 {
        fill-rule: evenodd;
      }
    </style>
  </defs>
  <g id="github-original" transform="translate(-3.612 -5.103)">
    <path id="Path_120" data-name="Path 120" class="cls-1" d="M26.682,5.1a23.072,23.072,0,0,0-7.293,44.961c1.153.214,1.576-.5,1.576-1.11,0-.55-.021-2.367-.031-4.3-6.418,1.4-7.772-2.722-7.772-2.722A6.109,6.109,0,0,0,10.6,38.561c-2.093-1.432.158-1.4.158-1.4a4.849,4.849,0,0,1,3.536,2.377c2.058,3.526,5.4,2.507,6.713,1.918a4.914,4.914,0,0,1,1.465-3.085c-5.124-.583-10.511-2.561-10.511-11.4a8.93,8.93,0,0,1,2.377-6.193,8.285,8.285,0,0,1,.223-6.1s1.937-.62,6.345,2.365a21.865,21.865,0,0,1,11.554,0c4.4-2.985,6.338-2.365,6.338-2.365a8.279,8.279,0,0,1,.227,6.1A8.912,8.912,0,0,1,41.4,26.968c0,8.861-5.4,10.811-10.534,11.383a5.514,5.514,0,0,1,1.565,4.272c0,3.087-.027,5.571-.027,6.331,0,.614.416,1.333,1.585,1.107A23.073,23.073,0,0,0,26.682,5.1Z"/>
    <path id="Path_121" data-name="Path 121" class="cls-2" d="M26.484,91.806c-.133.3-.6.39-1.035.185s-.685-.605-.543-.906.6-.395,1.04-.188.69.61.537.91Zm-.743-.55,3.189,3.279c-.287.267-.85.143-1.232-.28A.92.92,0,0,1,27.521,93c.3-.266.844-.14,1.24.28s.472.984.17,1.255Zm-.575-.618,2.957,4.095c-.37.258-.976.017-1.35-.52s-.37-1.183.01-1.44.97-.025,1.35.507.368,1.19-.01,1.452Zm0,0,3.261,3.361c-.33.365-1.036.267-1.552-.23a1.164,1.164,0,0,1-.343-1.544c.336-.366,1.045-.264,1.564.23s.686,1.18.333,1.543Zm0,0,4.5,1.951c-.147.473-.825.688-1.51.486s-1.13-.76-.99-1.238.823-.7,1.512-.485S39.215,102.843,39.073,103.324Zm0,0,4.943.361c.017.5-.563.91-1.28.92s-1.308-.387-1.315-.877.568-.91,1.29-.924,1.306.387,1.306.88Zm0,0,4.6-.782c.086.485-.413.984-1.126,1.117s-1.35-.172-1.44-.653c-.086-.5.422-1,1.122-1.126s1.354.17,1.444.663Zm0,0" transform="translate(-16.351 -59.988)"/>
  </g>
</svg>
