<svg xmlns="http://www.w3.org/2000/svg" width="49.593" height="70" viewBox="0 0 49.593 70">
  <defs>
    <style>
      .cls-1 {
        fill: #e44d26;
      }

      .cls-2 {
        fill: #f16529;
      }

      .cls-3 {
        fill: #ebebeb;
      }

      .cls-4 {
        fill: #fff;
      }
    </style>
  </defs>
  <g id="HTML" transform="translate(-37.456 -760)">
    <g id="html5-original-wordmark" transform="translate(37.456 760)">
      <path id="Path_105" data-name="Path 105" class="cls-1" d="M126.48,211.571l-4.513-50.621h49.592l-4.518,50.613-20.309,5.63Z" transform="translate(-121.967 -147.193)"/>
      <path id="Path_106" data-name="Path 106" class="cls-2" d="M394.017,254.166l16.41-4.55,3.861-43.25H394.017Z" transform="translate(-369.22 -188.47)"/>
      <path id="Path_107" data-name="Path 107" class="cls-3" d="M238.784,287.042h-8.216L230,280.684h8.782v-6.208H223.217l.148,1.666,1.526,17.109h13.893Zm0,16.123-.027.007-6.914-1.868-.442-4.951h-6.233l.87,9.748,12.718,3.531.029-.008Z" transform="translate(-213.988 -250.371)"/>
      <path id="Path_108" data-name="Path 108" d="M172.592,10.017h3.155v3.118h2.887V10.017h3.155v9.44h-3.155V16.3h-2.886v3.161h-3.155V10.017Zm13.345,3.131h-2.778V10.017h8.712v3.131h-2.779v6.309h-3.155Zm7.317-3.131h3.289l2.024,3.317,2.022-3.317h3.291v9.44h-3.143V14.777l-2.17,3.356h-.055l-2.172-3.356v4.679h-3.087V10.017Zm12.2,0h3.156v6.32h4.437v3.121H205.45v-9.44Z" transform="translate(-167.977 -10.017)"/>
      <path id="Path_109" data-name="Path 109" class="cls-4" d="M393.783,287.042v6.208h7.645l-.721,8.052-6.924,1.869v6.459L406.51,306.1l.093-1.049,1.459-16.344.152-1.667H393.783Zm0-12.567v6.208h15l.124-1.4.283-3.147.149-1.666Z" transform="translate(-369.008 -250.371)"/>
    </g>
  </g>
</svg>
