<svg width="45" height="45" viewBox="0 0 45 45" fill="none" xmlns="http://www.w3.org/2000/svg">
<g clip-path="url(#clip0_117_3005)">
<path d="M37.0312 0H7.96875C3.56773 0 0 3.65921 0 8.17308V36.8269C0 41.3408 3.56773 45 7.96875 45H37.0312C41.4323 45 45 41.3408 45 36.8269V8.17308C45 3.65921 41.4323 0 37.0312 0Z" fill="#330000"/>
<path d="M21.8063 27.0053H14.833L13.4142 31.5257C13.3949 31.6082 13.3481 31.6811 13.282 31.732C13.2159 31.7828 13.1345 31.8084 13.0519 31.8044H9.52002C9.3186 31.8044 9.24817 31.6909 9.30871 31.4638L15.3462 13.63C15.4066 13.4442 15.467 13.2326 15.5273 12.9952C15.6063 12.5821 15.6467 12.1623 15.6481 11.7413C15.644 11.7119 15.6466 11.6819 15.6558 11.6537C15.665 11.6255 15.6804 11.5998 15.7009 11.5788C15.7214 11.5578 15.7464 11.5419 15.7739 11.5325C15.8014 11.5231 15.8307 11.5204 15.8594 11.5246H20.6591C20.7998 11.5246 20.8803 11.5762 20.9007 11.6794L27.7533 31.4948C27.8136 31.7013 27.7532 31.8045 27.5721 31.8044H23.6477C23.5803 31.812 23.5125 31.7943 23.4569 31.7544C23.4014 31.7145 23.3619 31.6552 23.3459 31.5877L21.8063 27.0053ZM15.9197 23.1042H20.6894C20.5686 22.6916 20.4277 22.2271 20.2668 21.7109C20.1054 21.1952 19.9344 20.6431 19.7536 20.0545C19.5724 19.4662 19.3913 18.878 19.2101 18.2897C19.0291 17.7014 18.863 17.1338 18.7121 16.5868C18.5611 16.0401 18.4253 15.5396 18.3046 15.0852H18.2744C18.1044 15.9214 17.8929 16.7481 17.6405 17.5621C17.3584 18.4909 17.0716 19.4404 16.7801 20.4105C16.4881 21.381 16.2013 22.2789 15.9197 23.1042H15.9197Z" fill="#FF9A00"/>
<path d="M31.8282 14.8065C31.5203 14.8192 31.2132 14.7651 30.9271 14.6477C30.641 14.5303 30.3823 14.3523 30.1679 14.1254C29.954 13.8886 29.7879 13.6107 29.6791 13.3079C29.5703 13.005 29.521 12.6831 29.5339 12.3606C29.5229 12.0413 29.5777 11.7232 29.6948 11.4271C29.8118 11.131 29.9884 10.8635 30.2131 10.6422C30.4356 10.4232 30.6982 10.2515 30.9858 10.1373C31.2734 10.023 31.5802 9.96839 31.8885 9.97653C32.6131 9.97653 33.1816 10.1984 33.5941 10.6422C33.8024 10.8728 33.9642 11.1433 34.0704 11.4382C34.1766 11.733 34.225 12.0465 34.2129 12.3606C34.2256 12.6843 34.1746 13.0074 34.0631 13.3105C33.9516 13.6137 33.7819 13.8908 33.5639 14.1254C33.3361 14.3557 33.0643 14.5351 32.7656 14.6523C32.4669 14.7696 32.1477 14.8221 31.8282 14.8065ZM29.7452 31.4948V16.6951C29.7452 16.5094 29.8254 16.4165 29.9867 16.4165H33.6998C33.8607 16.4165 33.9412 16.5094 33.9413 16.6951V31.4948C33.9413 31.7013 33.8608 31.8046 33.6998 31.8044H30.0169C29.8358 31.8044 29.7452 31.7012 29.7452 31.4948Z" fill="#FF9A00"/>
</g>
<defs>
<clipPath id="clip0_117_3005">
<rect width="45" height="45" fill="white"/>
</clipPath>
</defs>
</svg>
