<svg xmlns="http://www.w3.org/2000/svg" width="45.897" height="45" viewBox="0 0 45.897 45">
  <defs>
    <style>
      .cls-1 {
        fill: #d6620a;
        fill-rule: evenodd;
      }
    </style>
  </defs>
  <path id="illustrator-line" class="cls-1" d="M1,1V45.912c.364.029.361.084.5.084,13.211,0,26.469,0,39.68,0,1.819,0,3.591,0,5.411,0,.119,0,.311-.055.311-.084C46.9,30.931,46.9,16,46.9,1ZM42.526,23.462V40.8c0,.6-.092.548-.685.548H6.38c-.593,0-.645.055-.645-.548V6.084c0-.6.052-.8.69-.8H41.8c.638,0,.73.2.73.844V23.462ZM24.1,15.056c-.078-.236-.223-.248-.435-.247-1.134.007-2.269.025-3.4,0a.535.535,0,0,0-.625.44q-2.4,7.383-4.82,14.758c-.262.8-.516,1.607-.8,2.477,1.06,0,2.029-.014,3,.009a.473.473,0,0,0,.555-.4c.415-1.4.863-2.792,1.274-4.194.1-.331.253-.42.592-.416q2.417.028,4.835,0a.457.457,0,0,1,.53.379c.442,1.41.911,2.811,1.353,4.221a.444.444,0,0,0,.549.379c.475-.034.954-.042,1.432-.042h1.673L29.8,32.3Q26.95,23.675,24.1,15.056Zm-4.522,9.866c.742-2.5,1.479-4.944,2.2-7.371q1.122,3.627,2.28,7.371H19.578Zm10.927,7.5h3.643V19.566H30.505Zm1.847-18.011a1.763,1.763,0,0,0-1.869,1.762,1.869,1.869,0,1,0,1.869-1.762Z" transform="translate(-1 -1)"/>
</svg>
