<svg xmlns="http://www.w3.org/2000/svg" width="70" height="70" viewBox="0 0 70 70">
  <defs>
    <style>
      .cls-1 {
        fill: #f0db4f;
      }

      .cls-2 {
        fill: #323330;
      }
    </style>
  </defs>
  <g id="javascript-original" transform="translate(-1.408 -1.408)">
    <path id="Path_118" data-name="Path 118" class="cls-1" d="M1.408,1.408h70v70h-70Z"/>
    <path id="Path_119" data-name="Path 119" class="cls-2" d="M80.183,79.748c-.513-3.193-2.6-5.876-8.763-8.377-2.143-.985-4.532-1.69-5.243-3.314a3.613,3.613,0,0,1-.126-2.049c.459-1.856,2.675-2.435,4.431-1.9a4.876,4.876,0,0,1,2.848,2.642c3.021-1.956,3.014-1.943,5.124-3.287a13.1,13.1,0,0,0-1.69-2.262c-1.817-2.029-4.292-3.074-8.251-2.994l-2.062.267A9.358,9.358,0,0,0,61.486,61.4a9.164,9.164,0,0,0,1.664,13.048c3.972,2.982,9.808,3.66,10.553,6.448.725,3.413-2.508,4.518-5.723,4.126-2.369-.493-3.686-1.7-5.11-3.886-2.621,1.517-2.621,1.517-5.317,3.067a11.831,11.831,0,0,0,2.382,3.24c5.071,5.143,17.759,4.891,20.035-2.894a9.628,9.628,0,0,0,.212-4.8ZM53.966,58.615H47.419l-.027,16.927c0,3.6.186,6.9-.4,7.912-.958,1.99-3.44,1.743-4.571,1.357A5.618,5.618,0,0,1,40.006,82.3a3.3,3.3,0,0,0-.373-.6l-5.323,3.26a10.519,10.519,0,0,0,3.859,4.418,12.708,12.708,0,0,0,9.356,1.151,8.262,8.262,0,0,0,5.283-4.138c1.491-2.748,1.171-6.075,1.157-9.754C54,70.638,53.966,64.636,53.966,58.615Z" transform="translate(-14.504 -25.035)"/>
  </g>
</svg>
