<svg xmlns="http://www.w3.org/2000/svg" width="18.629" height="17.678" viewBox="0 0 18.629 17.678">
  <defs>
    <style>
      .cls-1 {
        fill: none;
        stroke: #fff;
        stroke-linejoin: round;
      }
    </style>
  </defs>
  <g id="linkedIn" transform="translate(0.5 0.5)">
    <path id="Path_24" data-name="Path 24" class="cls-1" d="M150.688,259.285H146.5v-10.9h4.192Zm-2.1-12.576h-.024a2.048,2.048,0,0,1-2.086-2.08,2.125,2.125,0,0,1,4.246.029A2.037,2.037,0,0,1,148.583,246.709Zm9.65,5.03a1.676,1.676,0,0,0-1.677,1.677v5.869h-4.192s.049-10.061,0-10.9h4.192v1.245a5.192,5.192,0,0,1,3.3-1.211c2.482,0,4.243,1.8,4.243,5.286v5.579H159.91v-5.869A1.677,1.677,0,0,0,158.233,251.739Z" transform="translate(-146.473 -242.607)"/>
  </g>
</svg>
