<svg xmlns="http://www.w3.org/2000/svg" width="45.897" height="45" viewBox="0 0 45.897 45">
  <defs>
    <style>
      .cls-1 {
        fill: #0a18d6;
        fill-rule: evenodd;
      }
    </style>
  </defs>
  <path id="photoshop-line" class="cls-1" d="M46.611.72c-13.195,0-26.33,0-39.525,0-1.887,0-3.807,0-5.694,0A.967.967,0,0,0,1,.8V45.717H46.9V.8c0-.03-.151-.084-.286-.084Zm-4.639,40.6q-17.835-.02-35.665-.011c-.574,0-.572,0-.572-.58V5.882c0-.573-.005-.432.575-.432H41.934c.6,0,.592-.141.592.46v17.4q0,8.723.013,17.446C42.54,41.2,42.433,41.322,41.972,41.321ZM21.333,14.588a22.422,22.422,0,0,0-7.316-.038c-.518.052-.617.269-.616.719.016,5.419-.016,10.838-.016,16.257v.294h3.278V25.455a12.409,12.409,0,0,0,5.117-.467,5.326,5.326,0,0,0,3.776-5.779C25.442,16.875,23.944,15.187,21.333,14.588Zm-.711,7.962a6.317,6.317,0,0,1-3.644.377.386.386,0,0,1-.247-.279c-.015-1.9-.011-3.8-.011-5.751a8.352,8.352,0,0,1,3.3.006,2.73,2.73,0,0,1,2.259,2.465A2.989,2.989,0,0,1,20.622,22.55Zm12.13,2.532c-.535-.287-1.122-.48-1.678-.732-.514-.233-1.032-.462-1.52-.74a1.007,1.007,0,0,1-.5-.93A1.275,1.275,0,0,1,30.335,21.4a7.094,7.094,0,0,1,1.819.121,10.486,10.486,0,0,1,1.487.5l.644-2.234a7.907,7.907,0,0,0-3.746-.752,5.7,5.7,0,0,0-3.042.926,3.447,3.447,0,0,0,.019,5.85,18.659,18.659,0,0,0,2.131,1.012c.444.208.907.384,1.326.631a1.283,1.283,0,0,1,.617,1.4,1.176,1.176,0,0,1-1.033,1.024,5.91,5.91,0,0,1-1.864.051,24.394,24.394,0,0,1-2.54-.705c-.155.567-.3,1.193-.5,1.8-.11.334-.046.5.29.63a8.906,8.906,0,0,0,6.222.255A3.559,3.559,0,0,0,34.8,28.646a3.523,3.523,0,0,0-2.05-3.564Z" transform="translate(-1 -0.717)"/>
</svg>
