<svg xmlns="http://www.w3.org/2000/svg" width="18.168" height="19.905" viewBox="0 0 18.168 19.905">
  <defs>
    <style>
      .cls-1 {
        fill: none;
        stroke: #fff;
        stroke-linejoin: round;
      }
    </style>
  </defs>
  <path id="TeamTreehouse" class="cls-1" d="M254.043,824.1a2.477,2.477,0,0,0,.156,2.461l.031.046a24.737,24.737,0,0,1,1.641,2.154,1.249,1.249,0,0,1-.831,1.531,1.2,1.2,0,0,1-1.479-.861c-.2-.744.261-.813-.463-1.648-.378-.437-1.149.387-1.4,1.235a6.868,6.868,0,0,0-.371,1.7,1.432,1.432,0,0,1-.482,2.029,1.329,1.329,0,0,1-1.829-.579,1.424,1.424,0,0,1,.649-1.939,37.241,37.241,0,0,0,1.244-4.164c-1.055,2.242-1.685,1.154-2.522,2.821a1.224,1.224,0,0,1-.307.388,1.164,1.164,0,0,1-1.676-.181,1.265,1.265,0,0,1,.175-1.736,1.164,1.164,0,0,1,.5-.248,15.947,15.947,0,0,0,3.364-2.3c-1.885,1.055-2.427.683-2.427.683a1.09,1.09,0,0,1-.215.214,1.042,1.042,0,0,1-1.487-.25,1.13,1.13,0,0,1,.241-1.541,1.036,1.036,0,0,1,.652-.208c.818.027,3.478.714,4.7-1.669,0,0,.393-.717.879-1.6s.45-1.852-.08-2.162l-.959-.562a1.926,1.926,0,0,0-1.761,0l-6.6,3.856a1.993,1.993,0,0,0-.88,1.561v7.54a1.994,1.994,0,0,0,.88,1.561l6.608,3.859a1.921,1.921,0,0,0,1.761,0l6.965-3.865a2.085,2.085,0,0,0,.955-1.563v-7.539a2.084,2.084,0,0,0-.955-1.564s-.487-.286-1.089-.637C256.3,820.144,254.628,823.044,254.043,824.1Z" transform="translate(-242 -816.95)"/>
</svg>
