<svg xmlns="http://www.w3.org/2000/svg" width="18.168" height="14.769" viewBox="0 0 18.168 14.769">
  <defs>
    <style>
      .cls-1 {
        fill: none;
        stroke: #fff;
        stroke-linejoin: round;
      }
    </style>
  </defs>
  <g id="Twitter" transform="translate(0.5 0.5)">
    <path id="Path_15" data-name="Path 15" class="cls-1" d="M355.131,197.285a1.855,1.855,0,0,1-1.7.012c.718-.43.75-.731,1.01-1.544a6.963,6.963,0,0,1-2.208.844,3.48,3.48,0,0,0-5.923,3.171,9.866,9.866,0,0,1-7.164-3.633,3.482,3.482,0,0,0,1.076,4.642,3.473,3.473,0,0,1-1.573-.435.409.409,0,0,0,0,.044,3.479,3.479,0,0,0,2.789,3.409,3.489,3.489,0,0,1-1.57.06,3.481,3.481,0,0,0,3.247,2.414,6.987,6.987,0,0,1-5.146,1.439,9.885,9.885,0,0,0,15.217-8.329c0-.151,0-.3-.008-.45A7.434,7.434,0,0,0,355.131,197.285Z" transform="translate(-337.963 -195.5)"/>
  </g>
</svg>
