<svg xmlns="http://www.w3.org/2000/svg" width="44.859" height="45" viewBox="0 0 44.859 45">
  <defs>
    <style>
      .cls-1 {
        fill: #494949;
        fill-rule: evenodd;
      }
    </style>
  </defs>
  <path id="wordpress-plain" class="cls-1" d="M24.348,46.6A22.5,22.5,0,1,0,1.885,23.849,22.464,22.464,0,0,0,24.348,46.6ZM24.312,2.7A21.436,21.436,0,0,1,45.658,24.463c0,11.439-9.722,21.008-21.338,21.011A21.389,21.389,0,0,1,24.312,2.7Zm-8.968,11.29c.194.647-.35.873-.928.918l-1.923.147C14.824,22,17.121,28.838,19.471,35.84a3.533,3.533,0,0,0,.267-.442c1.291-3.857,2.588-7.712,3.846-11.58a2,2,0,0,0-.068-1.183c-.665-1.921-1.463-3.8-2.046-5.744-.4-1.331-.928-2.192-2.5-2.038-.268.026-.6-.55-.9-.848.363-.217.723-.615,1.089-.621q4.805-.073,9.612,0c.368.006.728.415,1.091.637-.318.29-.592.726-.963.838a10.236,10.236,0,0,1-1.971.209l6.987,20.785c1.058-3.516,2.043-6.744,3-9.98a9.747,9.747,0,0,0-1.2-8.132,11.445,11.445,0,0,1-1.3-2.342,6.724,6.724,0,0,1-.389-2.982c.269-1.614,1.507-2.415,3.183-2.568-9.169-8.51-23.577-5.463-28.886,3.782,2.044-.094,4-.218,5.948-.245a1.334,1.334,0,0,1,1.068.6ZM19,42.141a3.318,3.318,0,0,0-.079.47,19.541,19.541,0,0,0,11.793-.32L24.652,25.7C22.713,31.332,20.853,36.736,19,42.141Zm-3.053-.75L6.815,16.349C2.7,24.393,5.829,36.667,15.943,41.391ZM43.541,25.3c.29-3.8-1.023-9.07-2.156-9.795a23.748,23.748,0,0,1-.44,4.374C40,23.221,38.845,26.5,37.732,29.8c-1.21,3.579-2.467,7.142-3.7,10.712A18.435,18.435,0,0,0,43.541,25.3Z" transform="translate(-1.885 -1.603)"/>
</svg>
