<svg width="45" height="45" viewBox="0 0 45 45" fill="none" xmlns="http://www.w3.org/2000/svg">
<g clip-path="url(#clip0_117_3006)">
<path d="M37.0312 0H7.96875C3.56773 0 0 3.65921 0 8.17308V36.8269C0 41.3408 3.56773 45 7.96875 45H37.0312C41.4323 45 45 41.3408 45 36.8269V8.17308C45 3.65921 41.4323 0 37.0312 0Z" fill="#470137"/>
<path d="M23.6563 11.8343L18.0414 21.3395L24.0487 31.433C24.0872 31.5036 24.098 31.5867 24.0789 31.6652C24.0586 31.7378 23.9883 31.6921 23.8676 31.7124H19.581C19.2791 31.7124 19.0678 31.7015 18.947 31.4949C18.5442 30.6899 18.1417 29.8901 17.7395 29.0954C17.3367 28.301 16.909 27.4908 16.4566 26.6649C16.0038 25.8396 15.556 25.0037 15.1132 24.157H15.083C14.6802 24.9828 14.2626 25.8085 13.8302 26.634C13.3973 27.4598 12.9696 28.2803 12.5473 29.0954C12.1247 29.911 11.692 30.7212 11.2492 31.5259C11.1686 31.7117 11.0275 31.7308 10.8265 31.7308H6.69093C6.61072 31.7308 6.56541 31.7634 6.55506 31.6807C6.5437 31.6052 6.55983 31.528 6.60038 31.4639L12.4265 21.6491L6.75126 11.8034C6.69093 11.7211 6.68085 11.6541 6.72105 11.6021C6.74334 11.5757 6.7713 11.555 6.80275 11.5415C6.83419 11.5281 6.86824 11.5223 6.90223 11.5247H11.1586C11.2514 11.5195 11.3442 11.5353 11.4303 11.5712C11.5025 11.6131 11.5644 11.6714 11.6114 11.7415C11.9737 12.5672 12.3762 13.3929 12.8189 14.2184C13.2614 15.0442 13.7092 15.8595 14.1623 16.6643C14.6151 17.4693 15.0327 18.2847 15.4151 19.1103H15.4453C15.8476 18.2642 16.2551 17.4385 16.6679 16.6334C17.0801 15.8284 17.5028 15.0182 17.9357 14.2029C18.3683 13.3877 18.7859 12.5776 19.1885 11.7724C19.2117 11.696 19.2532 11.6268 19.3093 11.5712C19.3838 11.5324 19.4676 11.5162 19.5508 11.5247H23.5053C23.5434 11.5151 23.5836 11.519 23.6193 11.5359C23.6549 11.5528 23.6839 11.5816 23.7015 11.6176C23.7191 11.6536 23.7242 11.6947 23.7159 11.7341C23.7077 11.7735 23.6867 11.8088 23.6563 11.8343L23.6563 11.8343Z" fill="#FF61F6"/>
<path d="M32.3199 32.1142C30.9304 32.1358 29.5537 31.8397 28.2898 31.2472C27.1124 30.6883 26.1282 29.776 25.4673 28.631C24.7829 27.4651 24.4408 26.0047 24.4409 24.2499C24.4296 22.8289 24.7836 21.4299 25.4673 20.194C26.1716 18.935 27.2073 17.9049 28.4559 17.2216C29.7638 16.4786 31.3436 16.107 33.1953 16.107C33.2957 16.107 33.4265 16.1122 33.5877 16.1225C33.7486 16.1332 33.9398 16.1486 34.1613 16.169V10.0696C34.1613 9.92537 34.2217 9.85282 34.3425 9.85282H38.146C38.1706 9.84921 38.1957 9.85153 38.2193 9.85959C38.2429 9.86764 38.2643 9.88122 38.2819 9.89924C38.2995 9.91726 38.3127 9.93923 38.3206 9.96341C38.3284 9.98759 38.3307 10.0133 38.3272 10.0386V28.3368C38.3272 28.6881 38.3423 29.0699 38.3724 29.4824C38.4026 29.8955 38.4278 30.2671 38.448 30.597C38.4517 30.6613 38.4364 30.7253 38.404 30.7806C38.3717 30.8358 38.3239 30.8797 38.2668 30.9067C37.2855 31.3264 36.2635 31.6378 35.2179 31.8355C34.2619 32.0165 33.292 32.1097 32.3199 32.1142ZM34.1613 28.2749V19.8224C33.9981 19.7771 33.8315 19.746 33.6632 19.7295C33.4576 19.7083 33.251 19.698 33.0443 19.6986C32.3118 19.6911 31.5878 19.8608 30.9312 20.194C30.2917 20.52 29.7456 21.0108 29.3464 21.6182C28.9337 22.2374 28.7274 23.0527 28.7275 24.0642C28.7128 24.7391 28.8203 25.411 29.0445 26.0457C29.2269 26.5571 29.5153 27.0219 29.8898 27.408C30.2483 27.7632 30.6823 28.0282 31.1576 28.1821C31.6597 28.3488 32.1845 28.4324 32.7123 28.4297C32.9939 28.4297 33.2555 28.4194 33.4971 28.3988C33.7221 28.3814 33.9447 28.3399 34.1613 28.2749Z" fill="#FF61F6"/>
</g>
<defs>
<clipPath id="clip0_117_3006">
<rect width="45" height="45" fill="white"/>
</clipPath>
</defs>
</svg>
