<svg xmlns="http://www.w3.org/2000/svg" viewBox="0 0 18.6 17.7"><title>linkedIn</title><g id="Layer_2" data-name="Layer 2"><g id="Layer_1-2" data-name="Layer 1"><g id="linkedIn"><path id="Path_24" data-name="Path 24" d="M4.7,17.2H.5V6.3H4.7ZM2.6,4.6h0a2.1,2.1,0,0,1-2.1-2h0A2.1,2.1,0,0,1,2.7.5a2.1,2.1,0,0,1,2,2,1.9,1.9,0,0,1-2,2.1Zm9.7,5a1.7,1.7,0,0,0-1.7,1.7h0v5.9H6.4V6.3h4.2V7.5a5,5,0,0,1,3.3-1.2c2.5,0,4.2,1.8,4.2,5.3v5.6H13.9V11.3a1.7,1.7,0,0,0-1.6-1.7Z" style="fill:none;stroke:#fff;stroke-linejoin:round"/></g></g></g></svg>