<svg xmlns="http://www.w3.org/2000/svg" viewBox="0 0 18.2 19.8"><title>TeamTreehouse</title><g id="Layer_2" data-name="Layer 2"><g id="Layer_1-2" data-name="Layer 1"><path id="TeamTreehouse" d="M12,7.1a2.5,2.5,0,0,0,.2,2.5h0a18.4,18.4,0,0,1,1.7,2.2,1.3,1.3,0,0,1-.9,1.5,1.1,1.1,0,0,1-1.4-.9h0c-.2-.7.2-.8-.5-1.6s-1.2.4-1.4,1.2a10.5,10.5,0,0,0-.4,1.7,1.4,1.4,0,0,1-.4,2H8.8A1.3,1.3,0,0,1,7,15.2H7a1.5,1.5,0,0,1,.6-2h.1A27.7,27.7,0,0,0,8.9,9.1c-1.1,2.2-1.7,1.1-2.5,2.8l-.3.4a1.2,1.2,0,0,1-1.7-.2h0a1.2,1.2,0,0,1,.2-1.7.5.5,0,0,1,.5-.3A15,15,0,0,0,8.4,7.8C6.6,8.9,6,8.5,6,8.5l-.2.2a1.1,1.1,0,0,1-1.5-.2h0a1.4,1.4,0,0,1,.2-1.6l.7-.2c.8,0,3.5.7,4.7-1.7l.9-1.6c.5-.8.4-1.8-.1-2.1L9.7.7A1.7,1.7,0,0,0,8,.7L1.4,4.6A1.9,1.9,0,0,0,.5,6.1v7.6a1.9,1.9,0,0,0,.9,1.5L8,19.1a1.7,1.7,0,0,0,1.7,0l7-3.9a2,2,0,0,0,1-1.5V6.1a2,2,0,0,0-1-1.5l-1.1-.7C14.3,3.1,12.6,6,12,7.1Z" style="fill:none;stroke:#fff;stroke-linejoin:round"/></g></g></svg>