<svg xmlns="http://www.w3.org/2000/svg" viewBox="0 0 18.2 14.8"><title>Twitter</title><g id="Layer_2" data-name="Layer 2"><g id="Layer_1-2" data-name="Layer 1"><g id="Twitter"><path id="Path_15" data-name="Path 15" d="M17.7,2.3a1.7,1.7,0,0,1-1.7,0c.7-.4.7-.7,1-1.6a6.8,6.8,0,0,1-2.2.9,3.6,3.6,0,0,0-5-.2,3.9,3.9,0,0,0-1,3.4A9.8,9.8,0,0,1,1.7,1.1,3.5,3.5,0,0,0,2.8,5.8a3,3,0,0,1-1.6-.5h0A3.4,3.4,0,0,0,4,8.8a4.3,4.3,0,0,1-1.6.1,3.7,3.7,0,0,0,3.2,2.4A7.1,7.1,0,0,1,.5,12.7a10,10,0,0,0,13.7-3,9.9,9.9,0,0,0,1.5-5.3V3.9A10,10,0,0,0,17.7,2.3Z" style="fill:none;stroke:#fff;stroke-linejoin:round"/></g></g></g></svg>